<?xml version="1.0" encoding="UTF-8" standalone="no"?>
<!DOCTYPE svg PUBLIC "-//W3C//DTD SVG 1.1//EN"
 "http://www.w3.org/Graphics/SVG/1.1/DTD/svg11.dtd">
<!-- Generated by graphviz version 2.43.0 (0)
 -->
<!-- Title: graphic_graph Pages: 1 -->
<svg width="299pt" height="223pt"
 viewBox="0.00 0.00 299.00 223.00" xmlns="http://www.w3.org/2000/svg" xmlns:xlink="http://www.w3.org/1999/xlink">
<g id="graph0" class="graph" transform="scale(1 1) rotate(0) translate(4 219)">
<title>graphic_graph</title>
<polygon fill="white" stroke="transparent" points="-4,4 -4,-219 295,-219 295,4 -4,4"/>
<!-- 4 -->
<g id="node1" class="node">
<title>4</title>
<ellipse fill="none" stroke="black" cx="18" cy="-140" rx="18" ry="18"/>
<text text-anchor="middle" x="18" y="-136.3" font-family="Times,serif" font-size="14.00">4</text>
</g>
<!-- 5 -->
<g id="node2" class="node">
<title>5</title>
<ellipse fill="none" stroke="black" cx="191" cy="-197" rx="18" ry="18"/>
<text text-anchor="middle" x="191" y="-193.3" font-family="Times,serif" font-size="14.00">5</text>
</g>
<!-- 4&#45;&gt;5 -->
<g id="edge1" class="edge">
<title>4&#45;&gt;5</title>
<path fill="none" stroke="black" d="M34.09,-148.82C40.17,-152.21 47.32,-155.98 54,-159 89.37,-174.97 98.39,-179.44 136,-189 144.62,-191.19 154.18,-192.85 162.82,-194.07"/>
<polygon fill="black" stroke="black" points="162.43,-197.55 172.8,-195.36 163.33,-190.61 162.43,-197.55"/>
<text text-anchor="middle" x="100" y="-187.8" font-family="Times,serif" font-size="14.00">4</text>
</g>
<!-- 3 -->
<g id="node3" class="node">
<title>3</title>
<ellipse fill="none" stroke="black" cx="100" cy="-140" rx="18" ry="18"/>
<text text-anchor="middle" x="100" y="-136.3" font-family="Times,serif" font-size="14.00">3</text>
</g>
<!-- 4&#45;&gt;3 -->
<g id="edge2" class="edge">
<title>4&#45;&gt;3</title>
<path fill="none" stroke="black" d="M36.36,-140C46.7,-140 60.06,-140 71.78,-140"/>
<polygon fill="black" stroke="black" points="71.95,-143.5 81.95,-140 71.95,-136.5 71.95,-143.5"/>
<text text-anchor="middle" x="59" y="-143.8" font-family="Times,serif" font-size="14.00">7</text>
</g>
<!-- 3&#45;&gt;5 -->
<g id="edge3" class="edge">
<title>3&#45;&gt;5</title>
<path fill="none" stroke="black" d="M115.72,-149.16C126.6,-155.96 141.77,-165.49 155,-174 158.89,-176.5 163.01,-179.18 167,-181.79"/>
<polygon fill="black" stroke="black" points="165.12,-184.75 175.4,-187.31 168.96,-178.9 165.12,-184.75"/>
<text text-anchor="middle" x="145.5" y="-177.8" font-family="Times,serif" font-size="14.00">20</text>
</g>
<!-- 2 -->
<g id="node4" class="node">
<title>2</title>
<ellipse fill="none" stroke="black" cx="191" cy="-77" rx="18" ry="18"/>
<text text-anchor="middle" x="191" y="-73.3" font-family="Times,serif" font-size="14.00">2</text>
</g>
<!-- 3&#45;&gt;2 -->
<g id="edge4" class="edge">
<title>3&#45;&gt;2</title>
<path fill="none" stroke="black" d="M113.97,-128.57C120.43,-123.05 128.46,-116.46 136,-111 145.65,-104.01 156.73,-96.88 166.33,-90.98"/>
<polygon fill="black" stroke="black" points="168.25,-93.91 174.99,-85.73 164.63,-87.92 168.25,-93.91"/>
<text text-anchor="middle" x="145.5" y="-114.8" font-family="Times,serif" font-size="14.00">9</text>
</g>
<!-- 2&#45;&gt;4 -->
<g id="edge5" class="edge">
<title>2&#45;&gt;4</title>
<path fill="none" stroke="black" d="M172.94,-78.23C151.14,-80.26 112.56,-85.44 82,-98 67.27,-104.05 52.38,-113.78 40.77,-122.35"/>
<polygon fill="black" stroke="black" points="38.42,-119.75 32.59,-128.6 42.67,-125.31 38.42,-119.75"/>
<text text-anchor="middle" x="100" y="-101.8" font-family="Times,serif" font-size="14.00">14</text>
</g>
<!-- 1 -->
<g id="node5" class="node">
<title>1</title>
<ellipse fill="none" stroke="black" cx="273" cy="-77" rx="18" ry="18"/>
<text text-anchor="middle" x="273" y="-73.3" font-family="Times,serif" font-size="14.00">1</text>
</g>
<!-- 2&#45;&gt;1 -->
<g id="edge6" class="edge">
<title>2&#45;&gt;1</title>
<path fill="none" stroke="black" d="M209.36,-77C219.7,-77 233.06,-77 244.78,-77"/>
<polygon fill="black" stroke="black" points="244.95,-80.5 254.95,-77 244.95,-73.5 244.95,-80.5"/>
<text text-anchor="middle" x="232" y="-80.8" font-family="Times,serif" font-size="14.00">4</text>
</g>
<!-- 1&#45;&gt;3 -->
<g id="edge7" class="edge">
<title>1&#45;&gt;3</title>
<path fill="none" stroke="black" d="M256.91,-85.82C250.83,-89.21 243.68,-92.98 237,-96 201.63,-111.97 192.05,-114.45 155,-126 146.09,-128.78 136.25,-131.45 127.43,-133.69"/>
<polygon fill="black" stroke="black" points="126.52,-130.31 117.66,-136.12 128.21,-137.11 126.52,-130.31"/>
<text text-anchor="middle" x="191" y="-123.8" font-family="Times,serif" font-size="14.00">12</text>
</g>
<!-- 0 -->
<g id="node6" class="node">
<title>0</title>
<ellipse fill="none" stroke="black" cx="100" cy="-18" rx="18" ry="18"/>
<text text-anchor="middle" x="100" y="-14.3" font-family="Times,serif" font-size="14.00">0</text>
</g>
<!-- 0&#45;&gt;2 -->
<g id="edge8" class="edge">
<title>0&#45;&gt;2</title>
<path fill="none" stroke="black" d="M116.58,-25.68C127.62,-31.35 142.6,-39.53 155,-48 159.8,-51.28 164.75,-55.08 169.35,-58.83"/>
<polygon fill="black" stroke="black" points="167.25,-61.63 177.16,-65.38 171.75,-56.27 167.25,-61.63"/>
<text text-anchor="middle" x="145.5" y="-51.8" font-family="Times,serif" font-size="14.00">13</text>
</g>
<!-- 0&#45;&gt;1 -->
<g id="edge9" class="edge">
<title>0&#45;&gt;1</title>
<path fill="none" stroke="black" d="M118.05,-18.44C139.84,-19.5 178.41,-23.06 209,-35 223.83,-40.79 238.73,-50.5 250.32,-59.13"/>
<polygon fill="black" stroke="black" points="248.42,-62.09 258.47,-65.43 252.7,-56.55 248.42,-62.09"/>
<text text-anchor="middle" x="191" y="-38.8" font-family="Times,serif" font-size="14.00">16</text>
</g>
</g>
</svg>
